<?xml version="1.0" encoding="UTF-8" standalone="no"?>
<!-- Created with Inkscape (http://www.inkscape.org/) -->

<svg
   xmlns:dc="http://purl.org/dc/elements/1.1/"
   xmlns:cc="http://creativecommons.org/ns#"
   xmlns:rdf="http://www.w3.org/1999/02/22-rdf-syntax-ns#"
   xmlns:svg="http://www.w3.org/2000/svg"
   xmlns="http://www.w3.org/2000/svg"
   xmlns:sodipodi="http://sodipodi.sourceforge.net/DTD/sodipodi-0.dtd"
   xmlns:inkscape="http://www.inkscape.org/namespaces/inkscape"
   version="1.1"
   id="svg2"
   xml:space="preserve"
   width="512"
   height="512"
   viewBox="0 0 512.00001 512.00001"
   sodipodi:docname="aircraft.svg"
   inkscape:version="0.92.1 r15371"><metadata
     id="metadata8"><rdf:RDF><cc:Work
         rdf:about=""><dc:format>image/svg+xml</dc:format><dc:type
           rdf:resource="http://purl.org/dc/dcmitype/StillImage" /><dc:title></dc:title></cc:Work></rdf:RDF></metadata><defs
     id="defs6" /><sodipodi:namedview
     pagecolor="#ffffff"
     bordercolor="#666666"
     borderopacity="1"
     objecttolerance="10"
     gridtolerance="10"
     guidetolerance="10"
     inkscape:pageopacity="0"
     inkscape:pageshadow="2"
     inkscape:window-width="1920"
     inkscape:window-height="1043"
     id="namedview4"
     showgrid="false"
     fit-margin-top="0"
     fit-margin-left="0"
     fit-margin-right="0"
     fit-margin-bottom="0"
     inkscape:pagecheckerboard="true"
     inkscape:zoom="0.8224477"
     inkscape:cx="357.07354"
     inkscape:cy="296.35115"
     inkscape:window-x="0"
     inkscape:window-y="0"
     inkscape:window-maximized="1"
     inkscape:current-layer="g12" /><g
     id="g10"
     inkscape:groupmode="layer"
     inkscape:label="ink_ext_XXXXXX"
     transform="matrix(1.3333333,0,0,-1.3333333,-847.53829,1677.0657)"><g
       id="g12"
       transform="scale(0.1)"><g
         id="g5336"
         transform="matrix(1.8072947,0,0,2.0661277,2051.4597,4165.0537)"
         style="stroke:#000000;stroke-width:22.5;stroke-linecap:round;stroke-linejoin:round;stroke-miterlimit:4;stroke-dasharray:none;stroke-dashoffset:0;stroke-opacity:1"><path
           inkscape:connector-curvature="0"
           id="path652"
           style="fill:#ff902c;fill-opacity:1;fill-rule:nonzero;stroke:#000000;stroke-width:22.5;stroke-linecap:round;stroke-linejoin:round;stroke-miterlimit:4;stroke-dasharray:none;stroke-dashoffset:0;stroke-opacity:1"
           d="M 3390.84,2621.2 3088.3,2413.6 v -80.7 l 331.06,80.7 -28.52,207.6" /><path
           inkscape:connector-curvature="0"
           id="path654"
           style="fill:#ff6510;fill-opacity:1;fill-rule:nonzero;stroke:#000000;stroke-width:22.5;stroke-linecap:round;stroke-linejoin:round;stroke-miterlimit:4;stroke-dasharray:none;stroke-dashoffset:0;stroke-opacity:1"
           d="m 3504.33,2621.2 302.59,-207.6 v -80.7 l -331.04,80.7 28.45,207.6" /><path
           inkscape:connector-curvature="0"
           id="path656"
           style="fill:#ff902c;fill-opacity:1;fill-rule:nonzero;stroke:#000000;stroke-width:22.5;stroke-linecap:round;stroke-linejoin:round;stroke-miterlimit:4;stroke-dasharray:none;stroke-dashoffset:0;stroke-opacity:1"
           d="m 2737.87,2838.7 c 0,-11.3 -9.17,-20.5 -20.47,-20.5 v 0 c -11.28,0 -20.44,9.2 -20.44,20.5 v 111.4 c 0,11.3 9.16,20.5 20.44,20.5 v 0 c 11.3,0 20.47,-9.2 20.47,-20.5 v -111.4" /><path
           inkscape:connector-curvature="0"
           id="path658"
           style="fill:#ff902c;fill-opacity:1;fill-rule:nonzero;stroke:#000000;stroke-width:22.5;stroke-linecap:round;stroke-linejoin:round;stroke-miterlimit:4;stroke-dasharray:none;stroke-dashoffset:0;stroke-opacity:1"
           d="m 2899.04,2877.8 c 0,-11.3 -9.15,-20.5 -20.46,-20.5 v 0 c -11.28,0 -20.43,9.2 -20.43,20.5 v 111.4 c 0,11.3 9.15,20.5 20.43,20.5 v 0 c 11.31,0 20.46,-9.2 20.46,-20.5 v -111.4" /><path
           inkscape:connector-curvature="0"
           id="path660"
           style="fill:#ff902c;fill-opacity:1;fill-rule:nonzero;stroke:#000000;stroke-width:22.5;stroke-linecap:round;stroke-linejoin:round;stroke-miterlimit:4;stroke-dasharray:none;stroke-dashoffset:0;stroke-opacity:1"
           d="m 3060.22,2916.9 c 0,-11.3 -9.14,-20.4 -20.43,-20.4 v 0 c -11.31,0 -20.47,9.1 -20.47,20.4 v 111.4 c 0,11.3 9.16,20.5 20.47,20.5 v 0 c 11.29,0 20.43,-9.2 20.43,-20.5 v -111.4" /><path
           inkscape:connector-curvature="0"
           id="path662"
           style="fill:#ff902c;fill-opacity:1;fill-rule:nonzero;stroke:#000000;stroke-width:22.5;stroke-linecap:round;stroke-linejoin:round;stroke-miterlimit:4;stroke-dasharray:none;stroke-dashoffset:0;stroke-opacity:1"
           d="m 3221.43,2956 c 0,-11.3 -9.18,-20.4 -20.46,-20.4 v 0 c -11.31,0 -20.48,9.1 -20.48,20.4 v 111.4 c 0,11.3 9.17,20.5 20.48,20.5 v 0 c 11.28,0 20.46,-9.2 20.46,-20.5 V 2956" /><path
           inkscape:connector-curvature="0"
           id="path664"
           style="fill:#76c1ff;fill-opacity:1;fill-rule:nonzero;stroke:#000000;stroke-width:22.5;stroke-linecap:round;stroke-linejoin:round;stroke-miterlimit:4;stroke-dasharray:none;stroke-dashoffset:0;stroke-opacity:1"
           d="m 2826.92,3297.9 v -104.6 c 0,-20.4 9.88,-39.5 26.53,-51.4 l 34.44,-24.4 60.93,43.3 v 137.1 h -121.9" /><path
           inkscape:connector-curvature="0"
           id="path666"
           style="fill:#76c1ff;fill-opacity:1;fill-rule:nonzero;stroke:#000000;stroke-width:22.5;stroke-linecap:round;stroke-linejoin:round;stroke-miterlimit:4;stroke-dasharray:none;stroke-dashoffset:0;stroke-opacity:1"
           d="m 3056.16,3409 v -104.6 c 0,-20.4 9.87,-39.6 26.51,-51.4 l 34.42,-24.5 60.95,43.3 V 3409 h -121.88" /><path
           inkscape:connector-curvature="0"
           id="path668"
           style="fill:#f2f2f2;fill-opacity:1;fill-rule:nonzero;stroke:#000000;stroke-width:22.5;stroke-linecap:round;stroke-linejoin:round;stroke-miterlimit:4;stroke-dasharray:none;stroke-dashoffset:0;stroke-opacity:1"
           d="m 3359.77,3404.5 v -389.8 h -166 l -755.45,-196.5 c 15.42,91 13.36,146.4 73.5,175.5 l 847.95,410.8" /><path
           inkscape:connector-curvature="0"
           id="path670"
           style="fill:#ff902c;fill-opacity:1;fill-rule:nonzero;stroke:#000000;stroke-width:22.5;stroke-linecap:round;stroke-linejoin:round;stroke-miterlimit:4;stroke-dasharray:none;stroke-dashoffset:0;stroke-opacity:1"
           d="m 4157.35,2838.7 c 0,-11.3 9.18,-20.5 20.47,-20.5 v 0 c 11.3,0 20.45,9.2 20.45,20.5 v 111.4 c 0,11.3 -9.15,20.5 -20.45,20.5 v 0 c -11.29,0 -20.47,-9.2 -20.47,-20.5 v -111.4" /><path
           inkscape:connector-curvature="0"
           id="path672"
           style="fill:#ff902c;fill-opacity:1;fill-rule:nonzero;stroke:#000000;stroke-width:22.5;stroke-linecap:round;stroke-linejoin:round;stroke-miterlimit:4;stroke-dasharray:none;stroke-dashoffset:0;stroke-opacity:1"
           d="m 3996.16,2877.8 c 0,-11.3 9.18,-20.5 20.5,-20.5 v 0 c 11.26,0 20.44,9.2 20.44,20.5 v 111.4 c 0,11.3 -9.18,20.5 -20.44,20.5 v 0 c -11.32,0 -20.5,-9.2 -20.5,-20.5 v -111.4" /><path
           inkscape:connector-curvature="0"
           id="path674"
           style="fill:#ff902c;fill-opacity:1;fill-rule:nonzero;stroke:#000000;stroke-width:22.5;stroke-linecap:round;stroke-linejoin:round;stroke-miterlimit:4;stroke-dasharray:none;stroke-dashoffset:0;stroke-opacity:1"
           d="m 3835.02,2916.9 c 0,-11.3 9.11,-20.4 20.4,-20.4 v 0 c 11.31,0 20.5,9.1 20.5,20.4 v 111.4 c 0,11.3 -9.19,20.5 -20.5,20.5 v 0 c -11.29,0 -20.4,-9.2 -20.4,-20.5 v -111.4" /><path
           inkscape:connector-curvature="0"
           id="path676"
           style="fill:#ff902c;fill-opacity:1;fill-rule:nonzero;stroke:#000000;stroke-width:22.5;stroke-linecap:round;stroke-linejoin:round;stroke-miterlimit:4;stroke-dasharray:none;stroke-dashoffset:0;stroke-opacity:1"
           d="m 3673.83,2956 c 0,-11.3 9.13,-20.4 20.42,-20.4 v 0 c 11.32,0 20.48,9.1 20.48,20.4 v 111.4 c 0,11.3 -9.16,20.5 -20.48,20.5 v 0 c -11.29,0 -20.42,-9.2 -20.42,-20.5 V 2956" /><path
           inkscape:connector-curvature="0"
           id="path678"
           style="fill:#76c1ff;fill-opacity:1;fill-rule:nonzero;stroke:#000000;stroke-width:22.5;stroke-linecap:round;stroke-linejoin:round;stroke-miterlimit:4;stroke-dasharray:none;stroke-dashoffset:0;stroke-opacity:1"
           d="m 4068.29,3297.9 v -104.6 c 0,-20.4 -9.89,-39.5 -26.52,-51.4 l -34.43,-24.4 -60.94,43.3 v 137.1 h 121.89" /><path
           inkscape:connector-curvature="0"
           id="path680"
           style="fill:#76c1ff;fill-opacity:1;fill-rule:nonzero;stroke:#000000;stroke-width:22.5;stroke-linecap:round;stroke-linejoin:round;stroke-miterlimit:4;stroke-dasharray:none;stroke-dashoffset:0;stroke-opacity:1"
           d="m 3839.06,3409 v -104.6 c 0,-20.4 -9.89,-39.6 -26.52,-51.4 l -34.42,-24.5 -60.95,43.3 V 3409 h 121.89" /><path
           inkscape:connector-curvature="0"
           id="path682"
           style="fill:#f2f2f2;fill-opacity:1;fill-rule:nonzero;stroke:#000000;stroke-width:22.5;stroke-linecap:round;stroke-linejoin:round;stroke-miterlimit:4;stroke-dasharray:none;stroke-dashoffset:0;stroke-opacity:1"
           d="m 3535.46,3404.5 v -389.8 h 165.98 l 755.44,-196.5 c -15.38,91 -13.35,146.4 -73.5,175.5 l -847.92,410.8" /><path
           inkscape:connector-curvature="0"
           id="path684"
           style="fill:#f2f2f2;fill-opacity:1;fill-rule:nonzero;stroke:#000000;stroke-width:22.5;stroke-linecap:round;stroke-linejoin:round;stroke-miterlimit:4;stroke-dasharray:none;stroke-dashoffset:0;stroke-opacity:1"
           d="M 3447.61,4021.8 V 2380.3 c -56.01,29.8 -71.3,150.8 -86.85,446.7 -8.5,162 -17.14,376.4 -32.52,656.9 -14.18,323.1 2.71,492.8 119.37,537.9" /><path
           inkscape:connector-curvature="0"
           id="path686"
           style="fill:#bcc1c1;fill-opacity:1;fill-rule:nonzero;stroke:#000000;stroke-width:22.5;stroke-linecap:round;stroke-linejoin:round;stroke-miterlimit:4;stroke-dasharray:none;stroke-dashoffset:0;stroke-opacity:1"
           d="M 3447.61,4021.8 V 2380.3 c 56.03,29.8 71.3,150.8 86.83,446.7 8.54,162 17.14,376.4 32.56,656.9 14.19,323.1 -2.73,492.8 -119.39,537.9" /><path
           inkscape:connector-curvature="0"
           id="path688"
           style="fill:#4f5355;fill-opacity:1;fill-rule:nonzero;stroke:#000000;stroke-width:22.5;stroke-linecap:round;stroke-linejoin:round;stroke-miterlimit:4;stroke-dasharray:none;stroke-dashoffset:0;stroke-opacity:1"
           d="m 3434.97,3919.6 c -28.48,-4.1 -52.42,-22.2 -64.81,-47.1 18.06,10.2 40.42,16.7 64.81,18.4 v 28.7" /><path
           inkscape:connector-curvature="0"
           id="path690"
           style="fill:#4f5355;fill-opacity:1;fill-rule:nonzero;stroke:#000000;stroke-width:22.5;stroke-linecap:round;stroke-linejoin:round;stroke-miterlimit:4;stroke-dasharray:none;stroke-dashoffset:0;stroke-opacity:1"
           d="m 3460.22,3890.9 c 24.39,-1.7 46.75,-8.2 64.84,-18.4 -12.42,24.9 -36.32,43 -64.84,47.1 v -28.7" /><path
           inkscape:connector-curvature="0"
           id="path692"
           style="fill:#76c1ff;fill-opacity:1;fill-rule:nonzero;stroke:#000000;stroke-width:22.5;stroke-linecap:round;stroke-linejoin:round;stroke-miterlimit:4;stroke-dasharray:none;stroke-dashoffset:0;stroke-opacity:1"
           d="m 3476.46,2291.3 c 0,-15.9 -12.92,-28.8 -28.85,-28.8 v 0 c -15.92,0 -28.84,12.9 -28.84,28.8 v 255.2 c 0,15.9 12.92,28.8 28.84,28.8 v 0 c 15.93,0 28.85,-12.9 28.85,-28.8 v -255.2" /></g></g></g></svg>